<?xml version="1.0" encoding="UTF-8" standalone="no"?>
<svg
   xmlns="http://www.w3.org/2000/svg"
   width="707"
   height="690"
   version="1.1">
  <path
     style="fill:#000000"
     d="m 562.5,407.5 0,265 -269,0 0,-156.5 -17,0 0,173.5 303,0 0,-252 88,0 0,-190 39,0 0,-247 -706,0 0,515.5 293,0 0,-17 -276,0 0,-481.5 672,0 0,213 -39,0 0,190 -78,0 0,-13 z"
     id="Walls"/>
  <path
     style="fill:none;stroke:#000000"
     d="m 101.75,127.5 134,0 0,-74.5"
     id="path3068" />
  <path
     style="fill:none;stroke:#000000"
     d="m 265.75,67.5 46.5,0 0,-26"
     id="path3070" />
  <path
     style="fill:none;stroke:#000000"
     d="m 616.75,43.5 0,22 48.5,0"
     id="path3072" />
</svg>
